# xmcd
#
# Track frame offsets:
#	182
#	16127
#	33837
#	52645
#	88265
#	106005
#	127872
#	158422
#	175657
#
# Disc length: 2761 seconds
#
# Revision: 6
# Processed by: cddbd v1.5.2PL0 Copyright (c) Steve Scherf et al.
# Submitted via: EZCDAudioConverter 7.2.1.1
#
DISCID=510ac709
DTITLE=Joe Cocker - Live in L.A.
DYEAR=1990
DGENRE=Blues
TTITLE0=Dear Landlord
TTITLE1=Early in the Mornin'
TTITLE2=Didn't You Know You've Got to Cry Sometime
TTITLE3=St. James Infirmary
TTITLE4=Hitchcock Railway
TTITLE5=Midnight Rider
TTITLE6=What Kind of Man Are You
TTITLE7=High Time We Went
TTITLE8=Love the One You're With
EXTD=
EXTT0=
EXTT1=
EXTT2=
EXTT3=
EXTT4=
EXTT5=
EXTT6=
EXTT7=
EXTT8=
PLAYORDER=
